HIERARCHY
ROOT Hips
{
	OFFSET 0.000000 100.481300 0.000000
	CHANNELS 6 Xposition Yposition Zposition Xrotation Yrotation Zrotation
	JOINT Spine
	{
		OFFSET -0.279200 12.230698 -2.892100
		CHANNELS 3 Xrotation Yrotation Zrotation
		JOINT Spine1
		{
			OFFSET -0.325700 14.269203 -3.374200
			CHANNELS 3 Xrotation Yrotation Zrotation
			JOINT Spine2
			{
				OFFSET -0.372300 16.307602 -0.352600
				CHANNELS 3 Xrotation Yrotation Zrotation
				JOINT Neck
				{
					OFFSET -0.418800 17.814194 8.416900
					CHANNELS 3 Xrotation Yrotation Zrotation
					JOINT Head
					{
						OFFSET 0.000000 7.031097 3.806800
						CHANNELS 3 Xrotation Yrotation Zrotation
						JOINT HeadTop_End
						{
							OFFSET 0.000000 24.646606 12.978600
							CHANNELS 3 Xrotation Yrotation Zrotation
							End Site
							{
								OFFSET 0.000000 27.854965 0.000000
							}
						}
					}
				}
				JOINT LeftShoulder
				{
					OFFSET 16.952999 14.495407 -7.737500
					CHANNELS 3 Xrotation Yrotation Zrotation
					JOINT LeftArm
					{
						OFFSET 9.308998 -2.777710 0.208600
						CHANNELS 3 Xrotation Yrotation Zrotation
						JOINT LeftForeArm
						{
							OFFSET 29.972298 0.000000 0.000000
							CHANNELS 3 Xrotation Yrotation Zrotation
							JOINT LeftHand
							{
								OFFSET 26.026505 0.000000 0.000000
								CHANNELS 3 Xrotation Yrotation Zrotation
								JOINT LeftHandThumb1
								{
									OFFSET 12.240501 -7.147949 9.207150
									CHANNELS 3 Xrotation Yrotation Zrotation
									JOINT LeftHandThumb2
									{
										OFFSET 4.138618 -2.389435 2.389433
										CHANNELS 3 Xrotation Yrotation Zrotation
										JOINT LeftHandThumb3
										{
											OFFSET 2.726913 -1.574387 1.574386
											CHANNELS 3 Xrotation Yrotation Zrotation
											JOINT LeftHandThumb4
											{
												OFFSET 3.941010 -2.275345 2.275342
												CHANNELS 3 Xrotation Yrotation Zrotation
												End Site
												{
													OFFSET -0.005798 5.087799 0.009903
												}
											}
										}
									}
								}
								JOINT LeftHandIndex1
								{
									OFFSET 24.424698 -1.985611 5.953459
									CHANNELS 3 Xrotation Yrotation Zrotation
									JOINT LeftHandIndex2
									{
										OFFSET 6.426697 0.000000 0.000000
										CHANNELS 3 Xrotation Yrotation Zrotation
										JOINT LeftHandIndex3
										{
											OFFSET 5.337898 0.000000 0.000000
											CHANNELS 3 Xrotation Yrotation Zrotation
											JOINT LeftHandIndex4
											{
												OFFSET 4.409401 0.000000 0.000000
												CHANNELS 3 Xrotation Yrotation Zrotation
												End Site
												{
													OFFSET 0.000000 4.409363 0.014373
												}
											}
										}
									}
								}
								JOINT LeftHandMiddle1
								{
									OFFSET 23.810104 0.000000 0.000000
									CHANNELS 3 Xrotation Yrotation Zrotation
									JOINT LeftHandMiddle2
									{
										OFFSET 7.176498 0.000000 0.000000
										CHANNELS 3 Xrotation Yrotation Zrotation
										JOINT LeftHandMiddle3
										{
											OFFSET 6.774902 0.000000 0.000000
											CHANNELS 3 Xrotation Yrotation Zrotation
											JOINT LeftHandMiddle4
											{
												OFFSET 5.403328 0.000000 0.000000
												CHANNELS 3 Xrotation Yrotation Zrotation
												End Site
												{
													OFFSET -0.027702 5.403244 0.017414
												}
											}
										}
									}
								}
								JOINT LeftHandRing1
								{
									OFFSET 22.908401 -0.839279 -6.020567
									CHANNELS 3 Xrotation Yrotation Zrotation
									JOINT LeftHandRing2
									{
										OFFSET 6.337502 0.000000 0.000000
										CHANNELS 3 Xrotation Yrotation Zrotation
										JOINT LeftHandRing3
										{
											OFFSET 5.779297 0.000000 0.000000
											CHANNELS 3 Xrotation Yrotation Zrotation
											JOINT LeftHandRing4
											{
												OFFSET 4.965698 0.000000 0.000000
												CHANNELS 3 Xrotation Yrotation Zrotation
												End Site
												{
													OFFSET 0.000000 4.965668 0.016186
												}
											}
										}
									}
								}
								JOINT LeftHandPinky1
								{
									OFFSET 20.037003 -1.530319 -10.950146
									CHANNELS 3 Xrotation Yrotation Zrotation
									JOINT LeftHandPinky2
									{
										OFFSET 5.254700 0.000000 0.000000
										CHANNELS 3 Xrotation Yrotation Zrotation
										JOINT LeftHandPinky3
										{
											OFFSET 4.810204 0.000000 0.000000
											CHANNELS 3 Xrotation Yrotation Zrotation
											JOINT LeftHandPinky4
											{
												OFFSET 3.647202 0.000000 0.000000
												CHANNELS 3 Xrotation Yrotation Zrotation
												End Site
												{
													OFFSET 0.000000 3.647186 0.011889
												}
											}
										}
									}
								}
							}
						}
					}
				}
				JOINT RightShoulder
				{
					OFFSET -15.141001 14.495407 -7.737500
					CHANNELS 3 Xrotation Yrotation Zrotation
					JOINT RightArm
					{
						OFFSET -9.308998 -2.777710 0.208500
						CHANNELS 3 Xrotation Yrotation Zrotation
						JOINT RightForeArm
						{
							OFFSET -29.972300 0.000000 0.000000
							CHANNELS 3 Xrotation Yrotation Zrotation
							JOINT RightHand
							{
								OFFSET -26.026505 0.000000 0.000000
								CHANNELS 3 Xrotation Yrotation Zrotation
								JOINT RightHandThumb1
								{
									OFFSET -12.240601 -7.148026 9.207092
									CHANNELS 3 Xrotation Yrotation Zrotation
									JOINT RightHandThumb2
									{
										OFFSET -4.138618 -2.389435 2.389433
										CHANNELS 3 Xrotation Yrotation Zrotation
										JOINT RightHandThumb3
										{
											OFFSET -2.726974 -1.574417 1.574421
											CHANNELS 3 Xrotation Yrotation Zrotation
											JOINT RightHandThumb4
											{
												OFFSET -3.941010 -2.275345 2.275343
												CHANNELS 3 Xrotation Yrotation Zrotation
												End Site
												{
													OFFSET 0.005814 5.087799 0.009927
												}
											}
										}
									}
								}
								JOINT RightHandIndex1
								{
									OFFSET -24.424698 -1.985657 5.953444
									CHANNELS 3 Xrotation Yrotation Zrotation
									JOINT RightHandIndex2
									{
										OFFSET -6.426697 0.000000 0.000000
										CHANNELS 3 Xrotation Yrotation Zrotation
										JOINT RightHandIndex3
										{
											OFFSET -5.337898 0.000000 0.000000
											CHANNELS 3 Xrotation Yrotation Zrotation
											JOINT RightHandIndex4
											{
												OFFSET -4.409401 0.000000 0.000000
												CHANNELS 3 Xrotation Yrotation Zrotation
												End Site
												{
													OFFSET 0.000000 4.409363 0.014408
												}
											}
										}
									}
								}
								JOINT RightHandMiddle1
								{
									OFFSET -23.810097 0.000000 0.000000
									CHANNELS 3 Xrotation Yrotation Zrotation
									JOINT RightHandMiddle2
									{
										OFFSET -7.176498 0.000000 0.000000
										CHANNELS 3 Xrotation Yrotation Zrotation
										JOINT RightHandMiddle3
										{
											OFFSET -6.774902 0.000000 0.000000
											CHANNELS 3 Xrotation Yrotation Zrotation
											JOINT RightHandMiddle4
											{
												OFFSET -5.403328 0.000000 0.000000
												CHANNELS 3 Xrotation Yrotation Zrotation
												End Site
												{
													OFFSET 0.027702 5.403244 0.017457
												}
											}
										}
									}
								}
								JOINT RightHandRing1
								{
									OFFSET -22.908302 -0.839325 -6.020576
									CHANNELS 3 Xrotation Yrotation Zrotation
									JOINT RightHandRing2
									{
										OFFSET -6.337502 0.000000 0.000000
										CHANNELS 3 Xrotation Yrotation Zrotation
										JOINT RightHandRing3
										{
											OFFSET -5.779297 0.000000 0.000000
											CHANNELS 3 Xrotation Yrotation Zrotation
											JOINT RightHandRing4
											{
												OFFSET -4.965698 0.000000 0.000000
												CHANNELS 3 Xrotation Yrotation Zrotation
												End Site
												{
													OFFSET 0.000000 4.965668 0.016226
												}
											}
										}
									}
								}
								JOINT RightHandPinky1
								{
									OFFSET -20.037003 -1.530334 -10.950259
									CHANNELS 3 Xrotation Yrotation Zrotation
									JOINT RightHandPinky2
									{
										OFFSET -5.254700 0.000000 0.000000
										CHANNELS 3 Xrotation Yrotation Zrotation
										JOINT RightHandPinky3
										{
											OFFSET -4.810204 0.000000 0.000000
											CHANNELS 3 Xrotation Yrotation Zrotation
											JOINT RightHandPinky4
											{
												OFFSET -3.647202 0.000000 0.000000
												CHANNELS 3 Xrotation Yrotation Zrotation
												End Site
												{
													OFFSET 0.000000 3.647186 0.011917
												}
											}
										}
									}
								}
							}
						}
					}
				}
			}
		}
	}
	JOINT LeftUpLeg
	{
		OFFSET 15.427100 -6.655098 0.678600
		CHANNELS 3 Xrotation Yrotation Zrotation
		JOINT LeftLeg
		{
			OFFSET 4.081073 -39.591068 13.024000
			CHANNELS 3 Xrotation Yrotation Zrotation
			JOINT LeftFoot
			{
				OFFSET -4.081074 -37.707932 -15.979700
				CHANNELS 3 Xrotation Yrotation Zrotation
				JOINT LeftToeBase
				{
					OFFSET 5.346399 -15.068900 20.645000
					CHANNELS 3 Xrotation Yrotation Zrotation
					JOINT LeftToe_End
					{
						OFFSET 2.754700 0.931300 11.300900
						CHANNELS 3 Xrotation Yrotation Zrotation
						End Site
						{
							OFFSET 0.000000 11.669021 0.000000
						}
					}
				}
			}
		}
	}
	JOINT RightUpLeg
	{
		OFFSET -15.569500 -6.655098 0.678600
		CHANNELS 3 Xrotation Yrotation Zrotation
		JOINT RightLeg
		{
			OFFSET -4.081825 -39.591045 13.023800
			CHANNELS 3 Xrotation Yrotation Zrotation
			JOINT RightFoot
			{
				OFFSET 4.081824 -37.707954 -15.979600
				CHANNELS 3 Xrotation Yrotation Zrotation
				JOINT RightToeBase
				{
					OFFSET -5.346400 -15.068900 20.645000
					CHANNELS 3 Xrotation Yrotation Zrotation
					JOINT RightToe_End
					{
						OFFSET -2.754700 0.931300 11.300900
						CHANNELS 3 Xrotation Yrotation Zrotation
						End Site
						{
							OFFSET 0.000000 11.669021 0.000000
						}
					}
				}
			}
		}
	}
}
MOTION
Frames: 4
Frame Time: 0.033333
-9.567585 74.877762 0.323181 48.950808 64.636976 -55.057270 9.759488 -7.970279 9.855515 3.388456 -3.279290 2.464689 3.369748 -3.262029 2.513261 -1.134887 -6.847446 -2.295801 -17.346917 -46.971248 16.553737 0.000000 0.000000 -0.000000 0.435384 -11.977713 -11.717342 23.184418 10.354955 -59.855987 0.007159 -88.108546 0.007308 39.618823 19.059501 27.448129 -6.714886 -10.363616 -8.141575 4.363184 4.391867 14.681796 -23.868429 -36.793030 7.409201 0.000000 -0.000001 -0.000001 -1.850061 -2.612876 -18.950633 0.020334 0.488220 -4.769837 0.127181 -1.215337 11.947807 0.000000 -0.000001 -0.000003 -1.755002 -0.219567 -25.332526 0.570046 2.522659 -25.462730 0.198054 -1.511911 14.925358 -0.000000 0.000000 -0.000002 -0.298996 2.694978 -23.028539 1.420418 3.825375 -40.729361 0.124832 -1.204183 11.836575 0.000000 -0.000000 0.000000 -0.843441 4.389223 -25.329615 2.044054 4.446431 -49.359841 0.001254 -0.121467 1.185405 0.000000 0.000000 -0.000000 0.476681 5.110129 17.379092 10.696664 0.617383 40.904166 -0.000030 62.629966 0.000025 27.229533 11.844982 15.851675 -0.770722 -1.967582 2.924334 2.802715 -21.271157 -17.831577 -18.777503 20.738409 -14.485043 0.000001 -0.000001 -0.000004 -4.389084 -0.123024 46.958541 0.819573 -2.640542 34.481530 0.209526 -1.382585 17.233969 0.000000 0.000002 -0.000001 -3.399975 -2.457413 56.226735 2.180637 -3.945338 57.846539 0.122036 -1.060240 13.131228 -0.000001 -0.000000 -0.000001 0.136432 -4.965731 58.900095 3.655553 -4.548419 77.566914 0.427259 -1.950366 24.710187 0.000000 0.000001 -0.000002 1.738703 -6.187308 71.162505 5.137838 -4.632367 95.930178 1.372593 -3.303437 45.116716 -0.000001 0.000001 -0.000001 -29.230601 20.814617 7.530136 108.772791 4.086835 -1.324399 -7.212997 1.605418 7.753020 -9.651367 -0.000003 0.000012 -0.000000 -0.000000 0.000000 -51.833428 -13.469432 15.225754 54.321522 2.705484 0.332252 -18.317715 4.339174 -12.782467 -9.347783 0.000015 0.000001 -0.000000 0.000001 0.000000 
7.871845 74.385147 -0.359182 46.661223 64.041595 -53.052682 9.394826 -4.978337 8.936575 3.357031 -2.519590 2.142210 3.340472 -2.511392 2.178749 -1.041423 -7.572298 -2.206396 -16.259967 -49.081521 15.784939 0.000000 -0.000000 0.000000 0.469944 -11.726829 -11.345694 20.855989 9.819148 -65.389253 -0.000022 -51.211362 -0.000011 48.505463 2.623887 25.227727 -6.666341 -10.286917 -8.110095 4.355024 4.475145 14.693171 -23.849375 -36.736715 7.435660 0.000003 -0.000002 -0.000001 -1.857923 -2.602991 -19.034527 0.021073 0.496992 -4.855723 0.125392 -1.206846 11.863141 0.000001 0.000001 0.000001 -1.760434 -0.208245 -25.431825 0.574492 2.531971 -25.563586 0.195989 -1.504145 14.846873 0.000000 -0.000000 -0.000001 -0.298396 2.708284 -23.153921 1.428843 3.835125 -40.855518 0.122206 -1.191600 11.711058 -0.000000 -0.000000 -0.000000 -0.832680 4.407449 -25.509298 2.058047 4.458368 -49.540117 0.000905 -0.103114 1.006218 0.000001 0.000003 -0.000003 0.353409 6.723141 17.210596 7.199987 10.467624 35.064832 0.000015 66.712807 -0.000027 21.015529 11.015862 18.338298 -1.312460 -0.749379 3.337505 3.008496 -20.035856 -17.614469 -18.910851 21.605785 -14.237207 0.000000 0.000002 0.000002 -4.288259 0.165465 45.069072 0.715386 -2.482218 32.150817 0.156866 -1.199786 14.897500 0.000000 0.000003 -0.000001 -3.435398 -2.130243 54.109353 2.032330 -3.848360 55.664744 0.076593 -0.842067 10.394440 -0.000001 0.000002 -0.000001 -0.149049 -4.647886 56.371692 3.454153 -4.499441 75.014117 0.332734 -1.730361 21.767514 -0.000002 -0.000001 -0.000000 1.479603 -6.091582 67.798643 4.865907 -4.652513 92.571760 1.179124 -3.099063 41.653260 -0.000004 0.000002 -0.000002 -55.098248 12.685584 11.337575 112.093124 4.524457 -0.189703 -5.103937 -0.216547 6.208153 -9.925020 0.000002 -0.000020 0.000001 0.000000 -0.000000 -35.410026 -9.473968 13.559734 55.031538 6.255983 -0.823662 -35.537532 4.640950 -9.903398 -9.347790 0.000017 0.000002 -0.000001 0.000000 -0.000000 
26.112482 76.232681 -0.898549 47.003426 64.010265 -51.478043 8.242366 -3.095195 6.125010 3.109824 -1.853414 1.365853 3.094237 -1.861711 1.388059 -0.834998 -8.406032 -1.742136 -12.062996 -52.014124 17.976390 0.000000 -0.000000 0.000000 0.516596 -11.442369 -10.718022 22.479392 13.278387 -69.283349 -0.000000 -28.947144 -0.000006 56.964563 -10.568114 27.996278 -6.938609 -10.742741 -8.324689 4.403089 3.982280 14.626210 -23.962774 -37.069779 7.278479 0.000004 -0.000002 -0.000000 -1.804277 -2.647713 -18.537625 0.016891 0.445074 -4.347415 0.136171 -1.257052 12.364404 -0.000000 0.000000 0.000000 -1.720904 -0.259332 -24.843720 0.548429 2.476792 -24.967046 0.208367 -1.550082 15.311481 -0.000000 0.000002 0.000001 -0.297582 2.639121 -22.411282 1.379288 3.777186 -40.108985 0.138133 -1.265990 12.453813 0.000001 -0.000000 0.000001 -0.884167 4.306338 -24.445530 1.975777 4.387090 -48.473306 0.003820 -0.211739 2.066649 -0.000000 -0.000001 0.000000 0.390013 7.198603 15.160510 5.640567 17.509583 31.002666 -0.000138 72.366005 0.000130 15.022436 9.759218 22.762505 -2.483200 1.822369 4.264298 3.423841 -17.413291 -17.174531 -19.210025 23.443760 -13.699004 0.000003 0.000003 -0.000001 -4.010264 0.768042 40.825383 0.513999 -2.128645 27.146744 0.069581 -0.802962 9.906896 -0.000001 -0.000003 -0.000002 -3.405584 -1.444706 49.379809 1.715616 -3.612195 50.799501 0.015366 -0.378389 4.650073 -0.000001 0.000002 -0.000002 -0.600211 -3.964211 50.775155 3.017360 -4.359527 69.363016 0.169543 -1.246430 15.491067 -0.000001 0.000001 0.000001 1.068638 -5.902514 60.431041 4.268755 -4.640989 85.210489 0.803461 -2.616972 34.130305 -0.000001 -0.000001 0.000000 -70.903470 4.898461 10.463913 102.353615 3.435675 -0.375094 -3.206102 0.459756 3.812194 -8.773398 -0.000003 0.000024 -0.000004 0.000001 -0.000001 -14.364989 -7.093942 7.096016 41.963514 10.386107 -1.506878 -44.468240 4.968911 -5.805053 -9.347789 0.000018 0.000000 -0.000000 0.000000 0.000000 
44.654747 79.363945 -0.919116 50.371966 64.054334 -50.623105 7.016336 -1.421660 2.580889 2.863739 -1.234646 0.487462 2.851035 -1.256829 0.497631 -1.042910 -9.353695 -1.070781 -7.939799 -55.360053 21.050353 0.000000 -0.000000 0.000000 0.558427 -12.107300 -10.082592 24.468420 18.945961 -70.173145 0.000005 -19.482312 0.000007 60.801880 -17.711013 24.215568 -6.921259 -10.694646 -8.284603 4.398208 4.032646 14.633035 -23.951105 -37.035768 7.294631 0.000002 -0.000001 -0.000003 -1.814386 -2.652071 -18.588650 0.017300 0.450380 -4.399377 0.135048 -1.251923 12.313181 -0.000000 -0.000000 -0.000001 -1.729654 -0.264473 -24.904111 0.551053 2.482423 -25.027756 0.207086 -1.545392 15.263999 -0.000000 -0.000001 0.000002 -0.300300 2.639890 -22.487588 1.384311 3.783132 -40.185196 0.136466 -1.258400 12.377908 0.000001 -0.000000 0.000002 -0.886588 4.311930 -24.554542 1.984120 4.394444 -48.582316 0.003431 -0.200640 1.958292 -0.000001 0.000000 -0.000000 0.520736 5.737000 12.743803 3.982014 21.702009 27.857685 0.000008 78.368600 -0.000038 11.591057 9.027487 22.439314 -4.157957 5.308863 5.619362 3.950038 -13.820647 -16.613329 -19.657675 25.953923 -12.932353 -0.000004 0.000001 -0.000001 -3.522639 1.533155 34.813556 0.288420 -1.615028 20.249547 0.006558 -0.247447 3.038936 0.000002 0.000000 0.000001 -3.206553 -0.549929 42.702616 1.305790 -3.235650 43.945499 0.005737 0.231579 -2.843959 -0.000002 0.000001 -0.000001 -0.993463 -2.992289 42.926178 2.432172 -4.092310 61.434512 0.033355 -0.556873 6.852465 0.000004 0.000001 0.000000 0.336837 -5.422479 50.157084 3.448344 -4.497887 74.940043 0.393348 -1.874962 23.694129 0.000002 -0.000002 -0.000002 -77.145026 3.928540 6.076725 83.824671 2.216267 -0.298834 -4.419661 2.238673 7.554809 -8.771384 0.000013 -0.000001 0.000001 -0.000001 0.000001 1.876036 -10.189780 -0.958593 28.267846 12.134703 -2.755989 -36.878387 3.556319 -0.551951 -21.445669 0.000019 -0.000002 0.000000 -0.000000 0.000000 
